<svg id="visual" viewBox="0 0 2999 700" width="2999" height="700" xmlns="http://www.w3.org/2000/svg" xmlns:xlink="http://www.w3.org/1999/xlink" version="1.1"><rect x="0" y="0" width="2999" height="700" fill="#1A1A19"></rect><path d="M0 566L41.7 551.2C83.3 536.3 166.7 506.7 250 504C333.3 501.3 416.7 525.7 500 533.7C583.3 541.7 666.7 533.3 750 534.5C833.3 535.7 916.7 546.3 1000 538.8C1083.3 531.3 1166.7 505.7 1250 503.3C1333.3 501 1416.7 522 1499.8 531C1583 540 1666 537 1749.2 529.3C1832.3 521.7 1915.7 509.3 1999 506.2C2082.3 503 2165.7 509 2249 520.3C2332.3 531.7 2415.7 548.3 2499 549.7C2582.3 551 2665.7 537 2749 529.3C2832.3 521.7 2915.7 520.3 2957.3 519.7L2999 519L2999 701L2957.3 701C2915.7 701 2832.3 701 2749 701C2665.7 701 2582.3 701 2499 701C2415.7 701 2332.3 701 2249 701C2165.7 701 2082.3 701 1999 701C1915.7 701 1832.3 701 1749.2 701C1666 701 1583 701 1499.8 701C1416.7 701 1333.3 701 1250 701C1166.7 701 1083.3 701 1000 701C916.7 701 833.3 701 750 701C666.7 701 583.3 701 500 701C416.7 701 333.3 701 250 701C166.7 701 83.3 701 41.7 701L0 701Z" fill="#009688"></path><path d="M0 545L41.7 550.5C83.3 556 166.7 567 250 562.8C333.3 558.7 416.7 539.3 500 534.7C583.3 530 666.7 540 750 550.7C833.3 561.3 916.7 572.7 1000 577.7C1083.3 582.7 1166.7 581.3 1250 577.5C1333.3 573.7 1416.7 567.3 1499.8 564.3C1583 561.3 1666 561.7 1749.2 566.5C1832.3 571.3 1915.7 580.7 1999 580.3C2082.3 580 2165.7 570 2249 568.5C2332.3 567 2415.7 574 2499 569.3C2582.3 564.7 2665.7 548.3 2749 544.5C2832.3 540.7 2915.7 549.3 2957.3 553.7L2999 558L2999 701L2957.3 701C2915.7 701 2832.3 701 2749 701C2665.7 701 2582.3 701 2499 701C2415.7 701 2332.3 701 2249 701C2165.7 701 2082.3 701 1999 701C1915.7 701 1832.3 701 1749.2 701C1666 701 1583 701 1499.8 701C1416.7 701 1333.3 701 1250 701C1166.7 701 1083.3 701 1000 701C916.7 701 833.3 701 750 701C666.7 701 583.3 701 500 701C416.7 701 333.3 701 250 701C166.7 701 83.3 701 41.7 701L0 701Z" fill="#03887b"></path><path d="M0 603L41.7 594.7C83.3 586.3 166.7 569.7 250 565C333.3 560.3 416.7 567.7 500 574.7C583.3 581.7 666.7 588.3 750 580.8C833.3 573.3 916.7 551.7 1000 545.2C1083.3 538.7 1166.7 547.3 1250 556.3C1333.3 565.3 1416.7 574.7 1499.8 572.5C1583 570.3 1666 556.7 1749.2 555.7C1832.3 554.7 1915.7 566.3 1999 569.8C2082.3 573.3 2165.7 568.7 2249 561.5C2332.3 554.3 2415.7 544.7 2499 541C2582.3 537.3 2665.7 539.7 2749 552C2832.3 564.3 2915.7 586.7 2957.3 597.8L2999 609L2999 701L2957.3 701C2915.7 701 2832.3 701 2749 701C2665.7 701 2582.3 701 2499 701C2415.7 701 2332.3 701 2249 701C2165.7 701 2082.3 701 1999 701C1915.7 701 1832.3 701 1749.2 701C1666 701 1583 701 1499.8 701C1416.7 701 1333.3 701 1250 701C1166.7 701 1083.3 701 1000 701C916.7 701 833.3 701 750 701C666.7 701 583.3 701 500 701C416.7 701 333.3 701 250 701C166.7 701 83.3 701 41.7 701L0 701Z" fill="#057a6f"></path><path d="M0 614L41.7 606.2C83.3 598.3 166.7 582.7 250 582C333.3 581.3 416.7 595.7 500 598.5C583.3 601.3 666.7 592.7 750 588.8C833.3 585 916.7 586 1000 588.7C1083.3 591.3 1166.7 595.7 1250 593C1333.3 590.3 1416.7 580.7 1499.8 580.8C1583 581 1666 591 1749.2 596.2C1832.3 601.3 1915.7 601.7 1999 603.3C2082.3 605 2165.7 608 2249 603.3C2332.3 598.7 2415.7 586.3 2499 578.7C2582.3 571 2665.7 568 2749 569C2832.3 570 2915.7 575 2957.3 577.5L2999 580L2999 701L2957.3 701C2915.7 701 2832.3 701 2749 701C2665.7 701 2582.3 701 2499 701C2415.7 701 2332.3 701 2249 701C2165.7 701 2082.3 701 1999 701C1915.7 701 1832.3 701 1749.2 701C1666 701 1583 701 1499.8 701C1416.7 701 1333.3 701 1250 701C1166.7 701 1083.3 701 1000 701C916.7 701 833.3 701 750 701C666.7 701 583.3 701 500 701C416.7 701 333.3 701 250 701C166.7 701 83.3 701 41.7 701L0 701Z" fill="#066d63"></path><path d="M0 613L41.7 612.3C83.3 611.7 166.7 610.3 250 610C333.3 609.7 416.7 610.3 500 605.8C583.3 601.3 666.7 591.7 750 590C833.3 588.3 916.7 594.7 1000 602.2C1083.3 609.7 1166.7 618.3 1250 615.8C1333.3 613.3 1416.7 599.7 1499.8 595.7C1583 591.7 1666 597.3 1749.2 599C1832.3 600.7 1915.7 598.3 1999 600.8C2082.3 603.3 2165.7 610.7 2249 614.7C2332.3 618.7 2415.7 619.3 2499 617.8C2582.3 616.3 2665.7 612.7 2749 611C2832.3 609.3 2915.7 609.7 2957.3 609.8L2999 610L2999 701L2957.3 701C2915.7 701 2832.3 701 2749 701C2665.7 701 2582.3 701 2499 701C2415.7 701 2332.3 701 2249 701C2165.7 701 2082.3 701 1999 701C1915.7 701 1832.3 701 1749.2 701C1666 701 1583 701 1499.8 701C1416.7 701 1333.3 701 1250 701C1166.7 701 1083.3 701 1000 701C916.7 701 833.3 701 750 701C666.7 701 583.3 701 500 701C416.7 701 333.3 701 250 701C166.7 701 83.3 701 41.7 701L0 701Z" fill="#075f57"></path><path d="M0 622L41.7 623.8C83.3 625.7 166.7 629.3 250 626.5C333.3 623.7 416.7 614.3 500 611.7C583.3 609 666.7 613 750 612.7C833.3 612.3 916.7 607.7 1000 610.8C1083.3 614 1166.7 625 1250 632.3C1333.3 639.7 1416.7 643.3 1499.8 643.8C1583 644.3 1666 641.7 1749.2 637.7C1832.3 633.7 1915.7 628.3 1999 622C2082.3 615.7 2165.7 608.3 2249 606.7C2332.3 605 2415.7 609 2499 617.7C2582.3 626.3 2665.7 639.7 2749 645.2C2832.3 650.7 2915.7 648.3 2957.3 647.2L2999 646L2999 701L2957.3 701C2915.7 701 2832.3 701 2749 701C2665.7 701 2582.3 701 2499 701C2415.7 701 2332.3 701 2249 701C2165.7 701 2082.3 701 1999 701C1915.7 701 1832.3 701 1749.2 701C1666 701 1583 701 1499.8 701C1416.7 701 1333.3 701 1250 701C1166.7 701 1083.3 701 1000 701C916.7 701 833.3 701 750 701C666.7 701 583.3 701 500 701C416.7 701 333.3 701 250 701C166.7 701 83.3 701 41.7 701L0 701Z" fill="#08524b"></path><path d="M0 639L41.7 641.7C83.3 644.3 166.7 649.7 250 653.3C333.3 657 416.7 659 500 657C583.3 655 666.7 649 750 649.3C833.3 649.7 916.7 656.3 1000 658.5C1083.3 660.7 1166.7 658.3 1250 654C1333.3 649.7 1416.7 643.3 1499.8 645C1583 646.7 1666 656.3 1749.2 655.5C1832.3 654.7 1915.7 643.3 1999 639.8C2082.3 636.3 2165.7 640.7 2249 645.8C2332.3 651 2415.7 657 2499 657.2C2582.3 657.3 2665.7 651.7 2749 650.5C2832.3 649.3 2915.7 652.7 2957.3 654.3L2999 656L2999 701L2957.3 701C2915.7 701 2832.3 701 2749 701C2665.7 701 2582.3 701 2499 701C2415.7 701 2332.3 701 2249 701C2165.7 701 2082.3 701 1999 701C1915.7 701 1832.3 701 1749.2 701C1666 701 1583 701 1499.8 701C1416.7 701 1333.3 701 1250 701C1166.7 701 1083.3 701 1000 701C916.7 701 833.3 701 750 701C666.7 701 583.3 701 500 701C416.7 701 333.3 701 250 701C166.7 701 83.3 701 41.7 701L0 701Z" fill="#08453f"></path><path d="M0 659L41.7 659.3C83.3 659.7 166.7 660.3 250 659.5C333.3 658.7 416.7 656.3 500 655.2C583.3 654 666.7 654 750 654C833.3 654 916.7 654 1000 655C1083.3 656 1166.7 658 1250 658.5C1333.3 659 1416.7 658 1499.8 660.5C1583 663 1666 669 1749.2 672.3C1832.3 675.7 1915.7 676.3 1999 676.2C2082.3 676 2165.7 675 2249 674.8C2332.3 674.7 2415.7 675.3 2499 675.5C2582.3 675.7 2665.7 675.3 2749 676.3C2832.3 677.3 2915.7 679.7 2957.3 680.8L2999 682L2999 701L2957.3 701C2915.7 701 2832.3 701 2749 701C2665.7 701 2582.3 701 2499 701C2415.7 701 2332.3 701 2249 701C2165.7 701 2082.3 701 1999 701C1915.7 701 1832.3 701 1749.2 701C1666 701 1583 701 1499.8 701C1416.7 701 1333.3 701 1250 701C1166.7 701 1083.3 701 1000 701C916.7 701 833.3 701 750 701C666.7 701 583.3 701 500 701C416.7 701 333.3 701 250 701C166.7 701 83.3 701 41.7 701L0 701Z" fill="#073934"></path></svg>